{
  "accessors": [
    {
      "bufferView": 2,
      "componentType": 5126,
      "count": 3040,
      "max": [
        1.0000076293945312,
        1.6112289428710938,
        1.0000001192092896
      ],
      "min": [
        -1,
        -0.99598121643066406,
        -1.0000004768371582
      ],
      "type": "VEC3"
    },
    {
      "bufferView": 2,
      "byteOffset": 36480,
      "componentType": 5126,
      "count": 3040,
      "max": [
        1,
        0.95413690805435181,
        1
      ],
      "min": [
        -1,
        -1,
        -1
      ],
      "type": "VEC3"
    },
    {
      "bufferView": 3,
      "componentType": 5126,
      "count": 3040,
      "max": [
        0.999306321144104,
        0.74060189723968506,
        0.99532431364059448,
        1
      ],
      "min": [
        -0.99999970197677612,
        -0.85020101070404053,
        -0.9949188232421875,
        1
      ],
      "type": "VEC4"
    },
    {
      "bufferView": 1,
      "componentType": 5126,
      "count": 3040,
      "max": [
        1,
        0.9648624062538147
      ],
      "min": [
        0,
        0.012170501053333282
      ],
      "type": "VEC2"
    },
    {
      "bufferView": 0,
      "componentType": 5125,
      "count": 15420,
      "max": [
        3039
      ],
      "min": [
        0
      ],
      "type": "SCALAR"
    },
    {
      "bufferView": 2,
      "byteOffset": 72960,
      "componentType": 5126,
      "count": 185,
      "max": [
        1,
        1,
        1.0000001192092896
      ],
      "min": [
        -1.0000002384185791,
        -0.99999809265136719,
        -1.0000004768371582
      ],
      "type": "VEC3"
    },
    {
      "bufferView": 2,
      "byteOffset": 75180,
      "componentType": 5126,
      "count": 185,
      "max": [
        1,
        1,
        1
      ],
      "min": [
        -1,
        -0.46574899554252625,
        -1
      ],
      "type": "VEC3"
    },
    {
      "bufferView": 3,
      "byteOffset": 48640,
      "componentType": 5126,
      "count": 185,
      "max": [
        1,
        0.065108530223369598,
        1,
        1
      ],
      "min": [
        -1,
        -0.06510479748249054,
        -1,
        1
      ],
      "type": "VEC4"
    },
    {
      "bufferView": 1,
      "byteOffset": 24320,
      "componentType": 5126,
      "count": 185,
      "max": [
        0.87958419322967529,
        0.97709023952484131
      ],
      "min": [
        0.12041553854942322,
        0.065795183181762695
      ],
      "type": "VEC2"
    },
    {
      "bufferView": 0,
      "byteOffset": 61680,
      "componentType": 5125,
      "count": 420,
      "max": [
        184
      ],
      "min": [
        0
      ],
      "type": "SCALAR"
    }
  ],
  "asset": {
    "extras": {
      "author": "oscarherry3d (https://sketchfab.com/oscarherry3d)",
      "license": "CC-BY-4.0 (http://creativecommons.org/licenses/by/4.0/)",
      "source": "https://sketchfab.com/models/ca39d6f0333348e59e66cbe4258a028a",
      "title": "Water Bottle"
    },
    "generator": "Sketchfab-3.20.7",
    "version": "2.0"
  },
  "bufferViews": [
    {
      "buffer": 0,
      "byteLength": 63360,
      "byteOffset": 0,
      "name": "floatBufferViews",
      "target": 34963
    },
    {
      "buffer": 0,
      "byteLength": 25800,
      "byteOffset": 63360,
      "byteStride": 8,
      "name": "floatBufferViews",
      "target": 34962
    },
    {
      "buffer": 0,
      "byteLength": 77400,
      "byteOffset": 89160,
      "byteStride": 12,
      "name": "floatBufferViews",
      "target": 34962
    },
    {
      "buffer": 0,
      "byteLength": 51600,
      "byteOffset": 166560,
      "byteStride": 16,
      "name": "floatBufferViews",
      "target": 34962
    }
  ],
  "buffers": [
    {
      "byteLength": 218160,
      "uri": "scene.bin"
    }
  ],
  "images": [
    {
      "uri": "textures/material_normal.png"
    },
    {
      "uri": "textures/material_baseColor.jpeg"
    },
    {
      "uri": "textures/material_metallicRoughness.png"
    },
    {
      "uri": "textures/Bottle1_baseColor.png"
    },
    {
      "uri": "textures/Bottle1_normal.png"
    },
    {
      "uri": "textures/Bottle1_metallicRoughness.png"
    }
  ],
  "materials": [
    {
      "alphaMode": "BLEND",
      "doubleSided": true,
      "emissiveFactor": [
        0,
        0,
        0
      ],
      "name": "Bottle1",
      "normalTexture": {
        "index": 4,
        "scale": 1,
        "texCoord": 0
      },
      "pbrMetallicRoughness": {
        "baseColorFactor": [
          1,
          1,
          1,
          1
        ],
        "baseColorTexture": {
          "index": 3,
          "texCoord": 0
        },
        "metallicFactor": 0,
        "metallicRoughnessTexture": {
          "index": 5,
          "texCoord": 0
        },
        "roughnessFactor": 0.26048018289999997
      }
    },
    {
      "doubleSided": true,
      "emissiveFactor": [
        0,
        0,
        0
      ],
      "name": "material",
      "normalTexture": {
        "index": 0,
        "scale": 1,
        "texCoord": 0
      },
      "pbrMetallicRoughness": {
        "baseColorFactor": [
          1,
          1,
          1,
          1
        ],
        "baseColorTexture": {
          "index": 1,
          "texCoord": 0
        },
        "metallicFactor": 0.38586128050000001,
        "metallicRoughnessTexture": {
          "index": 2,
          "texCoord": 0
        },
        "roughnessFactor": 0.57755335369999994
      }
    }
  ],
  "meshes": [
    {
      "name": "pCylinder8_Bottle1_0",
      "primitives": [
        {
          "attributes": {
            "NORMAL": 1,
            "POSITION": 0,
            "TANGENT": 2,
            "TEXCOORD_0": 3
          },
          "indices": 4,
          "material": 0,
          "mode": 4
        }
      ]
    },
    {
      "name": "pCylinder9_Cap_0",
      "primitives": [
        {
          "attributes": {
            "NORMAL": 6,
            "POSITION": 5,
            "TANGENT": 7,
            "TEXCOORD_0": 8
          },
          "indices": 9,
          "material": 1,
          "mode": 4
        }
      ]
    }
  ],
  "nodes": [
    {
      "children": [
        1
      ],
      "name": "RootNode (gltf orientation matrix)",
      "rotation": [
        -0.70710678118654746,
        -0,
        -0,
        0.70710678118654757
      ]
    },
    {
      "children": [
        2
      ],
      "name": "RootNode (model correction matrix)"
    },
    {
      "children": [
        3
      ],
      "matrix": [
        1,
        0,
        0,
        0,
        0,
        0,
        1,
        0,
        0,
        -1,
        0,
        0,
        0,
        0,
        0,
        1
      ],
      "name": "Bottle.fbx"
    },
    {
      "children": [
        4
      ],
      "name": "RootNode"
    },
    {
      "children": [
        5,
        7
      ],
      "matrix": [
        0.30928567051887512,
        0,
        0,
        0,
        0,
        0.30928567051887512,
        0,
        0,
        0,
        0,
        0.30928567051887512,
        0,
        15.246892929077148,
        7.7164521217346191,
        0,
        1
      ],
      "name": "Water_Bottle"
    },
    {
      "children": [
        6
      ],
      "matrix": [
        1,
        0,
        0,
        0,
        0,
        2.5954184532165527,
        0,
        0,
        0,
        0,
        1,
        0,
        0,
        0,
        0,
        1
      ],
      "name": "pCylinder8"
    },
    {
      "mesh": 0,
      "name": "pCylinder8_Bottle1_0"
    },
    {
      "children": [
        8
      ],
      "matrix": [
        0.46276077628135681,
        0,
        0,
        0,
        0,
        0.24056263267993927,
        0,
        0,
        0,
        0,
        0.46276077628135681,
        0,
        0,
        4.0038094520568848,
        0,
        1
      ],
      "name": "pCylinder9"
    },
    {
      "mesh": 1,
      "name": "pCylinder9_Cap_0"
    }
  ],
  "samplers": [
    {
      "magFilter": 9729,
      "minFilter": 9987,
      "wrapS": 10497,
      "wrapT": 10497
    }
  ],
  "scene": 0,
  "scenes": [
    {
      "name": "OSG_Scene",
      "nodes": [
        0
      ]
    }
  ],
  "textures": [
    {
      "sampler": 0,
      "source": 0
    },
    {
      "sampler": 0,
      "source": 1
    },
    {
      "sampler": 0,
      "source": 2
    },
    {
      "sampler": 0,
      "source": 3
    },
    {
      "sampler": 0,
      "source": 4
    },
    {
      "sampler": 0,
      "source": 5
    }
  ]
}

