{
    "asset" : {
        "generator" : "Khronos glTF Blender I/O v1.6.16",
        "version" : "2.0"
    },
    "scene" : 0,
    "scenes" : [
        {
            "name" : "Scene",
            "nodes" : [
                0,
                1,
                2,
                3,
                4,
                5,
                6,
                7,
                8,
                9
            ]
        }
    ],
    "nodes" : [
        {
            "mesh" : 0,
            "name" : "Cube",
            "scale" : [
                12.5,
                0.5,
                42.5
            ],
            "translation" : [
                0,
                -1,
                -40
            ]
        },
        {
            "name" : "Light",
            "rotation" : [
                0.16907575726509094,
                0.7558803558349609,
                -0.27217137813568115,
                0.570947527885437
            ],
            "translation" : [
                4.076245307922363,
                5.903861999511719,
                -1.0054539442062378
            ]
        },
        {
            "name" : "Camera",
            "rotation" : [
                0.483536034822464,
                0.33687159419059753,
                -0.20870360732078552,
                0.7804827094078064
            ],
            "translation" : [
                7.358891487121582,
                4.958309173583984,
                6.925790786743164
            ]
        },
        {
            "mesh" : 1,
            "name" : "Cube.001",
            "rotation" : [
                -0.5,
                -0.5,
                0.5,
                0.4999999701976776
            ],
            "translation" : [
                -8.580001831054688,
                0.75,
                -15
            ]
        },
        {
            "mesh" : 2,
            "name" : "Cube.012",
            "rotation" : [
                -0.5,
                -0.5,
                -0.5,
                0.4999999701976776
            ],
            "scale" : [
                1.2032451629638672,
                1,
                1
            ],
            "translation" : [
                -4,
                -0.5000004768371582,
                -31
            ]
        },
        {
            "mesh" : 3,
            "name" : "Cube.013",
            "rotation" : [
                -0.4999999701976776,
                0.4999999701976776,
                0.5000000596046448,
                0.5
            ],
            "scale" : [
                1.2032451629638672,
                1,
                1
            ],
            "translation" : [
                4.400000095367432,
                -0.5000004768371582,
                -31
            ]
        },
        {
            "mesh" : 4,
            "name" : "Cube.014",
            "rotation" : [
                -0.5,
                -0.5,
                0.5,
                0.4999999701976776
            ],
            "scale" : [
                0.5000003576278687,
                1,
                1.0011781454086304
            ],
            "translation" : [
                0.20000004768371582,
                0,
                -23.16138458251953
            ]
        },
        {
            "mesh" : 5,
            "name" : "Cylinder",
            "rotation" : [
                0,
                0,
                -0.7071068286895752,
                0.7071068286895752
            ],
            "scale" : [
                0.05000000074505806,
                0.4000000059604645,
                0.05000000074505806
            ],
            "translation" : [
                -5.199999809265137,
                4,
                -34.5
            ]
        },
        {
            "mesh" : 6,
            "name" : "Cylinder.001",
            "rotation" : [
                0,
                0,
                -0.7071068286895752,
                0.7071068286895752
            ],
            "scale" : [
                0.05000000074505806,
                0.4000000059604645,
                0.05000000074505806
            ],
            "translation" : [
                -5.199999809265137,
                4,
                -27.5
            ]
        },
        {
            "mesh" : 7,
            "name" : "Cylinder.002",
            "rotation" : [
                0,
                0,
                -0.7071068286895752,
                0.7071068286895752
            ],
            "scale" : [
                0.05000000074505806,
                0.4000000059604645,
                0.05000000074505806
            ],
            "translation" : [
                5.5999956130981445,
                4,
                -34.5
            ]
        }
    ],
    "materials" : [
        {
            "doubleSided" : true,
            "name" : "Material",
            "pbrMetallicRoughness" : {
                "baseColorFactor" : [
                    0.800000011920929,
                    0.800000011920929,
                    0.800000011920929,
                    1
                ],
                "metallicFactor" : 0,
                "roughnessFactor" : 0.4000000059604645
            }
        }
    ],
    "meshes" : [
        {
            "name" : "Cube",
            "primitives" : [
                {
                    "attributes" : {
                        "POSITION" : 0,
                        "NORMAL" : 1,
                        "TEXCOORD_0" : 2
                    },
                    "indices" : 3,
                    "material" : 0
                }
            ]
        },
        {
            "name" : "Cube.052",
            "primitives" : [
                {
                    "attributes" : {
                        "POSITION" : 4,
                        "NORMAL" : 5,
                        "TEXCOORD_0" : 6
                    },
                    "indices" : 7
                }
            ]
        },
        {
            "name" : "Cube.010",
            "primitives" : [
                {
                    "attributes" : {
                        "POSITION" : 8,
                        "NORMAL" : 9,
                        "TEXCOORD_0" : 10
                    },
                    "indices" : 11
                }
            ]
        },
        {
            "name" : "Cube.012",
            "primitives" : [
                {
                    "attributes" : {
                        "POSITION" : 12,
                        "NORMAL" : 13,
                        "TEXCOORD_0" : 14
                    },
                    "indices" : 15
                }
            ]
        },
        {
            "name" : "Cube.014",
            "primitives" : [
                {
                    "attributes" : {
                        "POSITION" : 16,
                        "NORMAL" : 17,
                        "TEXCOORD_0" : 18
                    },
                    "indices" : 19
                }
            ]
        },
        {
            "name" : "Cylinder",
            "primitives" : [
                {
                    "attributes" : {
                        "POSITION" : 20,
                        "NORMAL" : 21,
                        "TEXCOORD_0" : 22
                    },
                    "indices" : 23
                }
            ]
        },
        {
            "name" : "Cylinder.001",
            "primitives" : [
                {
                    "attributes" : {
                        "POSITION" : 24,
                        "NORMAL" : 25,
                        "TEXCOORD_0" : 26
                    },
                    "indices" : 23
                }
            ]
        },
        {
            "name" : "Cylinder.002",
            "primitives" : [
                {
                    "attributes" : {
                        "POSITION" : 27,
                        "NORMAL" : 28,
                        "TEXCOORD_0" : 29
                    },
                    "indices" : 23
                }
            ]
        }
    ],
    "accessors" : [
        {
            "bufferView" : 0,
            "componentType" : 5126,
            "count" : 584,
            "max" : [
                1,
                11.000001907348633,
                1
            ],
            "min" : [
                -1,
                -1,
                -1
            ],
            "type" : "VEC3"
        },
        {
            "bufferView" : 1,
            "componentType" : 5126,
            "count" : 584,
            "type" : "VEC3"
        },
        {
            "bufferView" : 2,
            "componentType" : 5126,
            "count" : 584,
            "type" : "VEC2"
        },
        {
            "bufferView" : 3,
            "componentType" : 5123,
            "count" : 966,
            "type" : "SCALAR"
        },
        {
            "bufferView" : 4,
            "componentType" : 5126,
            "count" : 358,
            "max" : [
                1.25,
                1.75,
                1.000000238418579
            ],
            "min" : [
                -1.25,
                -7.5,
                -1
            ],
            "type" : "VEC3"
        },
        {
            "bufferView" : 5,
            "componentType" : 5126,
            "count" : 358,
            "type" : "VEC3"
        },
        {
            "bufferView" : 6,
            "componentType" : 5126,
            "count" : 358,
            "type" : "VEC2"
        },
        {
            "bufferView" : 7,
            "componentType" : 5123,
            "count" : 834,
            "type" : "SCALAR"
        },
        {
            "bufferView" : 8,
            "componentType" : 5126,
            "count" : 923,
            "max" : [
                6.64868688583374,
                1.6030601263046265,
                2
            ],
            "min" : [
                -6.64868688583374,
                -1.6030603647232056,
                -1.1920928955078125e-07
            ],
            "type" : "VEC3"
        },
        {
            "bufferView" : 9,
            "componentType" : 5126,
            "count" : 923,
            "type" : "VEC3"
        },
        {
            "bufferView" : 10,
            "componentType" : 5126,
            "count" : 923,
            "type" : "VEC2"
        },
        {
            "bufferView" : 11,
            "componentType" : 5123,
            "count" : 2925,
            "type" : "SCALAR"
        },
        {
            "bufferView" : 12,
            "componentType" : 5126,
            "count" : 1702,
            "max" : [
                6.64868688583374,
                1.6030601263046265,
                2
            ],
            "min" : [
                -6.64868688583374,
                -1.6056976318359375,
                -0.004227917175740004
            ],
            "type" : "VEC3"
        },
        {
            "bufferView" : 13,
            "componentType" : 5126,
            "count" : 1702,
            "type" : "VEC3"
        },
        {
            "bufferView" : 14,
            "componentType" : 5126,
            "count" : 1702,
            "type" : "VEC2"
        },
        {
            "bufferView" : 15,
            "componentType" : 5123,
            "count" : 4269,
            "type" : "SCALAR"
        },
        {
            "bufferView" : 16,
            "componentType" : 5126,
            "count" : 268,
            "max" : [
                0.9999993443489075,
                0.16138553619384766,
                2.596940279006958
            ],
            "min" : [
                -0.9999993443489075,
                -0.16138553619384766,
                -2.596940279006958
            ],
            "type" : "VEC3"
        },
        {
            "bufferView" : 17,
            "componentType" : 5126,
            "count" : 268,
            "type" : "VEC3"
        },
        {
            "bufferView" : 18,
            "componentType" : 5126,
            "count" : 268,
            "type" : "VEC2"
        },
        {
            "bufferView" : 19,
            "componentType" : 5123,
            "count" : 744,
            "type" : "SCALAR"
        },
        {
            "bufferView" : 20,
            "componentType" : 5126,
            "count" : 192,
            "max" : [
                1,
                1,
                1
            ],
            "min" : [
                -1,
                -1,
                -1
            ],
            "type" : "VEC3"
        },
        {
            "bufferView" : 21,
            "componentType" : 5126,
            "count" : 192,
            "type" : "VEC3"
        },
        {
            "bufferView" : 22,
            "componentType" : 5126,
            "count" : 192,
            "type" : "VEC2"
        },
        {
            "bufferView" : 23,
            "componentType" : 5123,
            "count" : 372,
            "type" : "SCALAR"
        },
        {
            "bufferView" : 24,
            "componentType" : 5126,
            "count" : 192,
            "max" : [
                1,
                1,
                1
            ],
            "min" : [
                -1,
                -1,
                -1
            ],
            "type" : "VEC3"
        },
        {
            "bufferView" : 25,
            "componentType" : 5126,
            "count" : 192,
            "type" : "VEC3"
        },
        {
            "bufferView" : 26,
            "componentType" : 5126,
            "count" : 192,
            "type" : "VEC2"
        },
        {
            "bufferView" : 27,
            "componentType" : 5126,
            "count" : 192,
            "max" : [
                1,
                1,
                1
            ],
            "min" : [
                -1,
                -1,
                -1
            ],
            "type" : "VEC3"
        },
        {
            "bufferView" : 28,
            "componentType" : 5126,
            "count" : 192,
            "type" : "VEC3"
        },
        {
            "bufferView" : 29,
            "componentType" : 5126,
            "count" : 192,
            "type" : "VEC2"
        }
    ],
    "bufferViews" : [
        {
            "buffer" : 0,
            "byteLength" : 7008,
            "byteOffset" : 0
        },
        {
            "buffer" : 0,
            "byteLength" : 7008,
            "byteOffset" : 7008
        },
        {
            "buffer" : 0,
            "byteLength" : 4672,
            "byteOffset" : 14016
        },
        {
            "buffer" : 0,
            "byteLength" : 1932,
            "byteOffset" : 18688
        },
        {
            "buffer" : 0,
            "byteLength" : 4296,
            "byteOffset" : 20620
        },
        {
            "buffer" : 0,
            "byteLength" : 4296,
            "byteOffset" : 24916
        },
        {
            "buffer" : 0,
            "byteLength" : 2864,
            "byteOffset" : 29212
        },
        {
            "buffer" : 0,
            "byteLength" : 1668,
            "byteOffset" : 32076
        },
        {
            "buffer" : 0,
            "byteLength" : 11076,
            "byteOffset" : 33744
        },
        {
            "buffer" : 0,
            "byteLength" : 11076,
            "byteOffset" : 44820
        },
        {
            "buffer" : 0,
            "byteLength" : 7384,
            "byteOffset" : 55896
        },
        {
            "buffer" : 0,
            "byteLength" : 5850,
            "byteOffset" : 63280
        },
        {
            "buffer" : 0,
            "byteLength" : 20424,
            "byteOffset" : 69132
        },
        {
            "buffer" : 0,
            "byteLength" : 20424,
            "byteOffset" : 89556
        },
        {
            "buffer" : 0,
            "byteLength" : 13616,
            "byteOffset" : 109980
        },
        {
            "buffer" : 0,
            "byteLength" : 8538,
            "byteOffset" : 123596
        },
        {
            "buffer" : 0,
            "byteLength" : 3216,
            "byteOffset" : 132136
        },
        {
            "buffer" : 0,
            "byteLength" : 3216,
            "byteOffset" : 135352
        },
        {
            "buffer" : 0,
            "byteLength" : 2144,
            "byteOffset" : 138568
        },
        {
            "buffer" : 0,
            "byteLength" : 1488,
            "byteOffset" : 140712
        },
        {
            "buffer" : 0,
            "byteLength" : 2304,
            "byteOffset" : 142200
        },
        {
            "buffer" : 0,
            "byteLength" : 2304,
            "byteOffset" : 144504
        },
        {
            "buffer" : 0,
            "byteLength" : 1536,
            "byteOffset" : 146808
        },
        {
            "buffer" : 0,
            "byteLength" : 744,
            "byteOffset" : 148344
        },
        {
            "buffer" : 0,
            "byteLength" : 2304,
            "byteOffset" : 149088
        },
        {
            "buffer" : 0,
            "byteLength" : 2304,
            "byteOffset" : 151392
        },
        {
            "buffer" : 0,
            "byteLength" : 1536,
            "byteOffset" : 153696
        },
        {
            "buffer" : 0,
            "byteLength" : 2304,
            "byteOffset" : 155232
        },
        {
            "buffer" : 0,
            "byteLength" : 2304,
            "byteOffset" : 157536
        },
        {
            "buffer" : 0,
            "byteLength" : 1536,
            "byteOffset" : 159840
        }
    ],
    "buffers" : [
        {
            "byteLength" : 161376,
            "uri" : "data:application/octet-stream;base64,"
        }
    ]
}
