{
  "accessors": [
    {
      "bufferView": 2,
      "componentType": 5126,
      "count": 460,
      "max": [
        6.5497269630432129,
        6.5497231483459473,
        24.865936279296875
      ],
      "min": [
        -6.5497279167175293,
        -6.5497207641601562,
        -18.542938232421875
      ],
      "type": "VEC3"
    },
    {
      "bufferView": 2,
      "byteOffset": 5520,
      "componentType": 5126,
      "count": 460,
      "max": [
        1,
        1,
        1
      ],
      "min": [
        -1,
        -1,
        -1
      ],
      "type": "VEC3"
    },
    {
      "bufferView": 1,
      "componentType": 5126,
      "count": 460,
      "max": [
        0.65625,
        1
      ],
      "min": [
        0.34375,
        -0
      ],
      "type": "VEC2"
    },
    {
      "bufferView": 0,
      "componentType": 5125,
      "count": 1800,
      "max": [
        459
      ],
      "min": [
        0
      ],
      "type": "SCALAR"
    }
  ],
  "asset": {
    "extras": {
      "author": "HenryMead (https://sketchfab.com/HenryMead)",
      "license": "CC-BY-4.0 (http://creativecommons.org/licenses/by/4.0/)",
      "source": "https://sketchfab.com/3d-models/beer-bottle-f9a8914b34714866affc482e8aa55b86",
      "title": "Beer Bottle"
    },
    "generator": "Sketchfab-7.39.0",
    "version": "2.0"
  },
  "bufferViews": [
    {
      "buffer": 0,
      "byteLength": 7200,
      "byteOffset": 0,
      "name": "floatBufferViews",
      "target": 34963
    },
    {
      "buffer": 0,
      "byteLength": 3680,
      "byteOffset": 7200,
      "byteStride": 8,
      "name": "floatBufferViews",
      "target": 34962
    },
    {
      "buffer": 0,
      "byteLength": 11040,
      "byteOffset": 10880,
      "byteStride": 12,
      "name": "floatBufferViews",
      "target": 34962
    }
  ],
  "buffers": [
    {
      "byteLength": 21920,
      "uri": "scene.bin"
    }
  ],
  "materials": [
    {
      "doubleSided": true,
      "name": "lambert2SG",
      "pbrMetallicRoughness": {
        "baseColorFactor": [
          0.025570429285328086,
          0.082633089724997014,
          0.029498595143389938,
          1
        ],
        "metallicFactor": 0.66025152439024393,
        "roughnessFactor": 0
      }
    }
  ],
  "meshes": [
    {
      "primitives": [
        {
          "attributes": {
            "NORMAL": 1,
            "POSITION": 0,
            "TEXCOORD_0": 2
          },
          "indices": 3,
          "material": 0,
          "mode": 4
        }
      ]
    }
  ],
  "nodes": [
    {
      "children": [
        1
      ],
      "name": "RootNode (gltf orientation matrix)",
      "rotation": [
        -0.70710678118654746,
        -0,
        -0,
        0.70710678118654757
      ]
    },
    {
      "children": [
        2
      ],
      "name": "RootNode (model correction matrix)"
    },
    {
      "children": [
        3,
        4
      ],
      "name": "4535b3c2b0cc49e485ad22e3b41f940e.obj.cleaner.materialmerger.gles"
    },
    {
      "name": ""
    },
    {
      "mesh": 0,
      "name": ""
    }
  ],
  "scene": 0,
  "scenes": [
    {
      "name": "OSG_Scene",
      "nodes": [
        0
      ]
    }
  ]
}

